<svg preserveAspectRatio="none" overflow="visible" style="display: block;" width="14" height="14" viewBox="0 0 14 14" fill="none" xmlns="http://www.w3.org/2000/svg">
<g id="Icon">
<path id="Vector" d="M3.50065 12.8332C3.19123 12.8332 2.89449 12.7103 2.67569 12.4915C2.4569 12.2727 2.33398 11.9759 2.33398 11.6665V2.33317C2.33398 2.02375 2.4569 1.72701 2.67569 1.50821C2.89449 1.28942 3.19123 1.16651 3.50065 1.16651H8.16732C8.35197 1.16621 8.53487 1.20244 8.70546 1.27312C8.87605 1.3438 9.03098 1.44753 9.16132 1.57834L11.2543 3.67134C11.3855 3.80172 11.4895 3.95679 11.5604 4.1276C11.6313 4.29841 11.6676 4.48157 11.6673 4.66651V11.6665C11.6673 11.9759 11.5444 12.2727 11.3256 12.4915C11.1068 12.7103 10.8101 12.8332 10.5007 12.8332H3.50065Z" stroke="#00A540" stroke-width="1.16667" stroke-linecap="round" stroke-linejoin="round"/>
<path id="Vector_2" d="M8.16602 1.1665V4.08317C8.16602 4.23788 8.22747 4.38625 8.33687 4.49565C8.44627 4.60505 8.59464 4.6665 8.74935 4.6665H11.666" stroke="#00A540" stroke-width="1.16667" stroke-linecap="round" stroke-linejoin="round"/>
<path id="Vector_3" d="M6.70833 9.91667C7.51375 9.91667 8.16667 9.26375 8.16667 8.45833C8.16667 7.65292 7.51375 7 6.70833 7C5.90292 7 5.25 7.65292 5.25 8.45833C5.25 9.26375 5.90292 9.91667 6.70833 9.91667Z" stroke="#00A540" stroke-width="1.16667" stroke-linecap="round" stroke-linejoin="round"/>
<path id="Vector_4" d="M7.75977 9.5083L8.75143 10.5" stroke="#00A540" stroke-width="1.16667" stroke-linecap="round" stroke-linejoin="round"/>
</g>
</svg>
