<svg preserveAspectRatio="none" overflow="visible" style="display: block;" width="14.6893" height="12.288" viewBox="0 0 14.6893 12.288" fill="none" xmlns="http://www.w3.org/2000/svg">
<g id="_x36_0">
<path id="Vector" d="M13.504 0H1.216C0.544 0 0 0.544 0 1.216V11.072C0 11.744 0.544 12.288 1.216 12.288H13.472C14.144 12.288 14.688 11.744 14.688 11.072V1.216C14.72 0.544 14.176 0 13.504 0ZM13.504 11.072H1.216V1.216H13.472V11.072H13.504Z" fill="#2B2B2B"/>
<path id="Vector_2" d="M3.58402 3.68C3.93602 3.68 4.19202 3.392 4.19202 3.072C4.19202 2.72 3.90402 2.464 3.58402 2.464C3.23202 2.464 2.97602 2.752 2.97602 3.072C2.97602 3.392 3.23202 3.68 3.58402 3.68Z" fill="black"/>
<path id="Vector_3" d="M11.136 3.68C11.488 3.68 11.744 3.392 11.744 3.072C11.744 2.72 11.456 2.464 11.136 2.464C10.784 2.464 10.528 2.752 10.528 3.072C10.528 3.392 10.784 3.68 11.136 3.68Z" fill="black"/>
<path id="Vector_4" d="M3.90402 6.432C3.90402 6.496 3.93602 6.56 3.96802 6.624C4.06402 6.72 4.19202 6.72 4.28802 6.656C4.32002 6.624 4.35202 6.592 4.38402 6.528L4.54403 6.144H5.37602L5.53602 6.528C5.56802 6.56 5.60003 6.624 5.63203 6.624C5.66403 6.656 5.72803 6.656 5.76003 6.656C5.82403 6.656 5.88803 6.624 5.95203 6.592C5.98403 6.56 6.01602 6.496 6.01602 6.4C6.01602 6.368 6.01603 6.336 5.98403 6.304L5.24802 4.544C5.21602 4.48 5.18403 4.448 5.15203 4.416C5.08803 4.384 5.05602 4.352 4.96002 4.352C4.89602 4.352 4.83202 4.384 4.76802 4.416C4.73602 4.448 4.70403 4.48 4.67203 4.544L3.93602 6.304C3.93602 6.368 3.90402 6.4 3.90402 6.432ZM4.99203 5.152L5.21602 5.664H4.80002L4.99203 5.152Z" fill="black"/>
<path id="Vector_5" d="M8.35202 5.984C8.35202 5.824 8.28802 5.696 8.19202 5.6C8.16002 5.568 8.09602 5.504 8.06402 5.472C8.09602 5.44 8.09602 5.408 8.12802 5.408C8.19202 5.312 8.22402 5.184 8.22402 5.056C8.22402 4.864 8.16002 4.704 8.00002 4.576C7.87202 4.448 7.68002 4.416 7.42402 4.416H6.72002C6.65602 4.416 6.59202 4.448 6.52802 4.48C6.49602 4.544 6.46402 4.576 6.46402 4.672V6.464C6.46402 6.528 6.49602 6.592 6.52802 6.656C6.56002 6.72 6.62402 6.72 6.72002 6.72H7.42402C7.71202 6.72 7.93602 6.656 8.06402 6.528C8.28802 6.368 8.35202 6.208 8.35202 5.984ZM7.04002 4.864H7.45602C7.55202 4.864 7.64802 4.896 7.68002 4.928C7.71202 4.96 7.74402 4.992 7.74402 5.056C7.74402 5.152 7.71202 5.184 7.68002 5.216C7.64802 5.248 7.58402 5.28 7.39202 5.28H7.04002V4.864ZM7.80802 6.112C7.77602 6.144 7.68002 6.176 7.48802 6.176H7.04002V5.76H7.45602C7.84002 5.76 7.84002 5.92 7.84002 5.984C7.87202 6.048 7.84002 6.08 7.80802 6.112Z" fill="black"/>
<path id="Vector_6" d="M8.89603 4.928C8.80003 5.12 8.73603 5.312 8.73603 5.536C8.73603 5.76 8.80003 5.984 8.89603 6.144C8.99203 6.336 9.12003 6.464 9.31203 6.56C9.47203 6.656 9.69603 6.688 9.88803 6.688C10.048 6.688 10.176 6.656 10.272 6.624C10.368 6.592 10.496 6.528 10.592 6.464C10.688 6.432 10.72 6.336 10.72 6.24C10.72 6.176 10.688 6.112 10.656 6.08C10.624 6.048 10.496 5.984 10.368 6.048C10.304 6.08 10.208 6.112 10.144 6.144C10.08 6.176 9.98403 6.176 9.88803 6.176C9.72803 6.176 9.63203 6.144 9.50403 6.08C9.40803 6.016 9.34403 5.952 9.28003 5.856C9.21603 5.76 9.21603 5.632 9.21603 5.504C9.21603 5.376 9.24803 5.248 9.28003 5.152C9.34403 5.056 9.40803 4.96 9.50403 4.928C9.60003 4.864 9.72803 4.832 9.88803 4.832C9.98403 4.832 10.08 4.832 10.144 4.864C10.208 4.896 10.304 4.928 10.368 4.96C10.464 4.992 10.592 4.992 10.656 4.928C10.688 4.896 10.72 4.832 10.72 4.768C10.72 4.672 10.688 4.608 10.592 4.544C10.496 4.48 10.368 4.448 10.24 4.384C10.112 4.352 9.98403 4.32 9.85603 4.32C9.63203 4.32 9.44003 4.352 9.28003 4.448C9.12003 4.608 8.99203 4.736 8.89603 4.928Z" fill="black"/>
<path id="Vector_7" d="M4.60802 9.44H4.44802V7.904C4.44802 7.84 4.41602 7.776 4.38402 7.712C4.32002 7.648 4.25602 7.648 4.19202 7.648H4.12802C4.09602 7.648 4.03202 7.648 4.00002 7.68L3.61602 7.872C3.52002 7.904 3.48802 8 3.48802 8.096C3.48802 8.16 3.52002 8.224 3.55202 8.288C3.61602 8.352 3.71202 8.384 3.84002 8.32L3.96802 8.256V9.44H3.74402C3.68002 9.44 3.61602 9.472 3.58402 9.504C3.55202 9.536 3.52002 9.6 3.52002 9.664C3.52002 9.728 3.55202 9.792 3.58402 9.824C3.61602 9.856 3.68002 9.888 3.74402 9.888H4.64002C4.70402 9.888 4.76802 9.856 4.80002 9.824C4.86402 9.792 4.86402 9.728 4.86402 9.664C4.86402 9.6 4.83202 9.536 4.80002 9.504C4.73602 9.472 4.67202 9.44 4.60802 9.44Z" fill="black"/>
<path id="Vector_8" d="M6.68802 9.024C6.78402 8.928 6.88002 8.832 6.94402 8.736C7.04002 8.608 7.07202 8.48 7.07202 8.352C7.07202 8.224 7.04002 8.096 6.97602 7.968C6.91202 7.872 6.81602 7.776 6.68802 7.712C6.56002 7.648 6.43202 7.616 6.30402 7.616C6.04802 7.616 5.82402 7.68 5.60002 7.776C5.50402 7.808 5.47202 7.904 5.47202 8C5.47202 8.064 5.50402 8.128 5.53602 8.16C5.60002 8.224 5.72802 8.256 5.79202 8.192C5.92002 8.128 6.08002 8.096 6.24002 8.096C6.36802 8.096 6.46402 8.128 6.52802 8.16C6.59202 8.192 6.59202 8.256 6.59202 8.32C6.59202 8.352 6.59202 8.416 6.56002 8.448C6.52802 8.512 6.46402 8.544 6.40002 8.608C6.33602 8.672 6.24002 8.736 6.11202 8.8C5.98402 8.896 5.85602 8.96 5.76002 9.024C5.66402 9.088 5.56802 9.184 5.50402 9.28C5.44002 9.376 5.40802 9.504 5.40802 9.632C5.40802 9.696 5.44002 9.792 5.50402 9.824C5.56802 9.888 5.63202 9.888 5.69602 9.888H6.81602C6.88002 9.888 6.94402 9.856 6.97602 9.824C7.04002 9.792 7.04002 9.728 7.04002 9.664C7.04002 9.6 7.00802 9.536 6.97602 9.504C6.94402 9.472 6.88002 9.44 6.81602 9.44H6.08002C6.14402 9.408 6.24002 9.344 6.33602 9.28C6.46402 9.184 6.59202 9.088 6.68802 9.024Z" fill="black"/>
<path id="Vector_9" d="M8.92802 8.736C8.96002 8.704 8.99202 8.672 8.99202 8.672C9.08802 8.576 9.12002 8.448 9.12002 8.288C9.12002 8.096 9.05602 7.904 8.89602 7.808C8.76802 7.712 8.54402 7.648 8.28802 7.648C8.06402 7.648 7.84002 7.712 7.64802 7.808C7.58402 7.84 7.52002 7.936 7.52002 8C7.52002 8.064 7.55202 8.128 7.58402 8.16C7.64802 8.224 7.71202 8.256 7.84002 8.192C7.96802 8.128 8.09602 8.096 8.25602 8.096C8.38402 8.096 8.48002 8.128 8.54402 8.16C8.57602 8.192 8.60802 8.224 8.60802 8.288C8.60802 8.352 8.57602 8.416 8.51202 8.448C8.41602 8.512 8.28802 8.512 8.09602 8.512C8.03202 8.512 7.96802 8.544 7.93602 8.576C7.90402 8.608 7.87202 8.672 7.87202 8.736C7.87202 8.8 7.90402 8.864 7.93602 8.896C7.96802 8.928 8.03202 8.96 8.09602 8.96H8.12802C8.64002 8.96 8.64002 9.152 8.64002 9.216C8.64002 9.28 8.60802 9.344 8.54402 9.344C8.35202 9.44 8.03202 9.44 7.77602 9.344C7.68002 9.312 7.58402 9.312 7.48802 9.408C7.45602 9.44 7.42402 9.504 7.42402 9.568C7.42402 9.632 7.42402 9.664 7.45602 9.696L7.55202 9.792C7.74402 9.888 7.96802 9.92 8.22402 9.92C8.48002 9.92 8.67202 9.856 8.83202 9.76C8.99202 9.632 9.08802 9.472 9.08802 9.248C9.08802 9.056 9.02402 8.896 8.92802 8.8C8.99202 8.8 8.96002 8.768 8.92802 8.736Z" fill="black"/>
<path id="Vector_10" d="M11.2 8.928H11.104V7.904C11.104 7.84 11.072 7.744 11.008 7.712C10.944 7.648 10.88 7.616 10.784 7.616H10.72C10.688 7.616 10.624 7.616 10.592 7.648C10.56 7.68 10.496 7.712 10.496 7.744L9.60002 8.928C9.56802 8.992 9.53602 9.056 9.53602 9.12C9.53602 9.184 9.56802 9.28 9.63202 9.312C9.69602 9.376 9.76002 9.408 9.82402 9.408H10.592V9.696C10.592 9.76 10.624 9.824 10.656 9.888C10.72 9.92 10.752 9.952 10.848 9.952C10.912 9.952 10.976 9.92 11.04 9.888C11.104 9.856 11.104 9.792 11.104 9.696V9.408H11.2C11.264 9.408 11.328 9.376 11.36 9.344C11.392 9.312 11.424 9.248 11.424 9.184C11.424 9.12 11.392 9.056 11.36 9.024C11.328 8.96 11.264 8.928 11.2 8.928ZM10.592 8.928H10.176L10.592 8.384V8.928Z" fill="black"/>
<path id="Vector_11" d="M5.85602 3.36H8.83202C9.02402 3.36 9.15202 3.232 9.15202 3.04C9.15202 2.848 9.02402 2.72 8.83202 2.72H5.85602C5.66402 2.72 5.53602 2.848 5.53602 3.04C5.53602 3.232 5.69602 3.36 5.85602 3.36Z" fill="black"/>
</g>
</svg>
